<svg width="32" height="32" viewBox="0 0 32 32" fill="none" xmlns="http://www.w3.org/2000/svg">
<g id="Page-1">
<g id="Artboard">
<g id="BTC">
<path id="Fill-504" fill-rule="evenodd" clip-rule="evenodd" d="M31.8642 15.9995C31.8642 24.8361 24.7365 31.9995 15.9438 31.9995C7.15116 31.9995 0.0234375 24.8361 0.0234375 15.9995C0.0234375 7.16281 7.15116 -0.000549316 15.9438 -0.000549316C24.7365 -0.000549316 31.8642 7.16281 31.8642 15.9995Z" fill="#F7931A"/>
<path id="Fill-505" fill-rule="evenodd" clip-rule="evenodd" d="M19.8091 20.6755C19.6759 21.1256 19.3761 21.4965 18.965 21.7199C18.5539 21.9435 18.0811 21.9928 17.6333 21.8587L13.1499 20.5168L14.1488 17.1467L18.6318 18.4888H18.632C19.5563 18.7655 20.0845 19.7464 19.8091 20.6755ZM21.3212 13.7691C21.5435 14.1823 21.5925 14.6575 21.4593 15.1077C21.1838 16.0365 20.2073 16.5671 19.2834 16.2909H19.2833L14.8001 14.949L15.7986 11.5789L20.2819 12.9208C20.7298 13.0549 21.0988 13.356 21.3212 13.7691ZM23.3282 12.6779C22.8157 11.7261 21.965 11.0317 20.9332 10.7229L20.3401 10.5455L21.1705 7.74323L19.0398 7.10547L18.2094 9.90771L16.3904 9.36323L17.2209 6.56099L16.7105 6.40819L14.6428 5.78931L13.8423 8.49043L11.3224 7.73619L10.6113 10.1362L13.1311 10.8906L10.5423 19.6263L8.02244 18.872L7.31128 21.2722L9.831 22.0263L9.1555 24.3061L9.66575 24.4589L11.7335 25.0778L12.4391 22.6968L14.2624 23.2426L13.5569 25.6237L15.6789 26.2589L16.3845 23.8778L16.9818 24.0565C17.3626 24.1704 17.7516 24.2269 18.1381 24.2269C18.7988 24.2269 19.4533 24.0619 20.0508 23.737C20.9979 23.2219 21.6887 22.3672 21.9961 21.3299C22.3193 20.2389 22.1598 19.1181 21.6457 18.1955C22.5789 17.7061 23.3226 16.8538 23.6461 15.7623C23.9535 14.725 23.8405 13.6296 23.3282 12.6779Z" fill="white"/>
</g>
</g>
</g>
</svg>
