<svg width="28" height="29" viewBox="0 0 28 29" fill="none" xmlns="http://www.w3.org/2000/svg">
<path d="M10.5 17.5625C11.2249 17.5625 11.8125 16.9749 11.8125 16.25C11.8125 15.5251 11.2249 14.9375 10.5 14.9375C9.77513 14.9375 9.1875 15.5251 9.1875 16.25C9.1875 16.9749 9.77513 17.5625 10.5 17.5625Z" fill="white"/>
<path d="M17.5 17.5625C18.2249 17.5625 18.8125 16.9749 18.8125 16.25C18.8125 15.5251 18.2249 14.9375 17.5 14.9375C16.7751 14.9375 16.1875 15.5251 16.1875 16.25C16.1875 16.9749 16.7751 17.5625 17.5 17.5625Z" fill="white"/>
<path fill-rule="evenodd" clip-rule="evenodd" d="M13.9935 9.24998C12.0966 9.23595 10.2092 9.51766 8.39912 10.085C7.93799 10.2295 7.44701 9.97282 7.30249 9.51169C7.15796 9.05056 7.41463 8.55957 7.87576 8.41505C9.8573 7.79402 11.9234 7.4853 13.9999 7.49998C16.0764 7.4853 18.1426 7.79402 20.1241 8.41505C20.5853 8.55957 20.8419 9.05056 20.6974 9.51169C20.5529 9.97282 20.0619 10.2295 19.6008 10.085C17.7907 9.51766 15.9032 9.23595 14.0064 9.24998H13.9935Z" fill="white"/>
<path fill-rule="evenodd" clip-rule="evenodd" d="M7.30249 19.4883C7.44701 19.0272 7.93799 18.7705 8.39912 18.915C10.2092 19.4823 12.0966 19.764 13.9935 19.75H14.0064C15.9032 19.764 17.7907 19.4823 19.6008 18.915C20.0619 18.7705 20.5529 19.0272 20.6974 19.4883C20.8419 19.9494 20.5853 20.4404 20.1241 20.5849C18.1426 21.206 16.0764 21.5147 13.9999 21.5C11.9234 21.5147 9.8573 21.206 7.87576 20.5849C7.41463 20.4404 7.15796 19.9494 7.30249 19.4883Z" fill="white"/>
<path fill-rule="evenodd" clip-rule="evenodd" d="M17.6925 4.70963C18.0692 4.49727 18.5108 4.43091 18.9332 4.52317C20.086 4.77302 21.2147 5.12352 22.3063 5.57065C22.552 5.66539 22.7727 5.81541 22.9512 6.00915C23.1317 6.20498 23.2641 6.44006 23.3381 6.69582L27.0444 19.0722C27.1411 19.3946 27.1433 19.738 27.0509 20.0616C26.9584 20.3853 26.7751 20.6756 26.5227 20.8983L26.5182 20.9023C24.7091 22.4764 22.2579 23.6678 19.4737 24.3503C19.087 24.4489 18.678 24.4105 18.3162 24.2417C17.9559 24.0736 17.6647 23.7864 17.4916 23.4287L16.1718 20.8111C15.9543 20.3796 16.1277 19.8534 16.5593 19.6359C16.9908 19.4183 17.5169 19.5918 17.7345 20.0233L19.0579 22.6483L19.0589 22.6502C21.6295 22.0198 23.8119 20.9373 25.3694 19.5821L25.9438 20.2422L25.3649 19.586C25.3665 19.5847 25.3676 19.5829 25.3682 19.5808C25.3688 19.5788 25.3687 19.5767 25.3681 19.5747L21.6616 7.19764C21.6585 7.19641 21.6554 7.19516 21.6523 7.19389C20.6523 6.78362 19.618 6.46217 18.5616 6.23328L18.5597 6.23286C18.5571 6.23229 18.5544 6.2327 18.552 6.23402C18.5499 6.23521 18.5483 6.23705 18.5473 6.23927L17.6855 8.84648C17.5339 9.30532 17.0389 9.55432 16.5801 9.40266C16.1213 9.251 15.8723 8.75609 16.0239 8.29726L16.8905 5.67558C17.0301 5.266 17.3156 4.92215 17.6925 4.70963Z" fill="white"/>
<path fill-rule="evenodd" clip-rule="evenodd" d="M9.44806 6.23402C9.44572 6.2327 9.44298 6.23229 9.44035 6.23286L9.43845 6.23328C8.38203 6.46217 7.34781 6.78362 6.34777 7.19389C6.34469 7.19516 6.34159 7.19641 6.33849 7.19764L2.632 19.5745C2.6314 19.5765 2.63132 19.5788 2.63189 19.5809C2.63241 19.5827 2.63338 19.5843 2.63471 19.5856C4.19194 20.9392 6.37279 22.0203 8.94121 22.6502L8.94216 22.6483L10.2656 20.0233C10.4831 19.5918 11.0093 19.4183 11.4408 19.6359C11.8723 19.8534 12.0458 20.3796 11.8282 20.8111L10.5085 23.4287C10.3354 23.7864 10.0442 24.0736 9.68387 24.2417C9.32209 24.4105 8.91308 24.4489 8.52634 24.3503C5.74215 23.6678 3.29095 22.4764 1.48192 20.9023L1.47738 20.8983C1.22498 20.6756 1.0417 20.3853 0.949224 20.0616C0.856776 19.738 0.858977 19.3948 0.955565 19.0724C0.95554 19.0725 0.955589 19.0723 0.955565 19.0724L4.66198 6.69584C4.73593 6.44008 4.86836 6.20498 5.04883 6.00915C5.22739 5.8154 5.44808 5.66539 5.69378 5.57065C6.78566 5.1234 7.91469 4.77282 9.06787 4.52296C9.48999 4.43101 9.9312 4.49743 10.3076 4.70963C10.6845 4.92215 10.97 5.26601 11.1095 5.6756L11.1121 5.68318L11.9761 8.29726C12.1278 8.75609 11.8788 9.251 11.42 9.40266C10.9611 9.55432 10.4662 9.30532 10.3146 8.84648L9.45276 6.23926C9.45182 6.23705 9.45017 6.23521 9.44806 6.23402Z" fill="white"/>
<path d="M10.5 17.5625C11.2249 17.5625 11.8125 16.9749 11.8125 16.25C11.8125 15.5251 11.2249 14.9375 10.5 14.9375C9.77513 14.9375 9.1875 15.5251 9.1875 16.25C9.1875 16.9749 9.77513 17.5625 10.5 17.5625Z" fill="white"/>
<path d="M17.5 17.5625C18.2249 17.5625 18.8125 16.9749 18.8125 16.25C18.8125 15.5251 18.2249 14.9375 17.5 14.9375C16.7751 14.9375 16.1875 15.5251 16.1875 16.25C16.1875 16.9749 16.7751 17.5625 17.5 17.5625Z" fill="white"/>
<path fill-rule="evenodd" clip-rule="evenodd" d="M13.9935 9.24998C12.0966 9.23595 10.2092 9.51766 8.39912 10.085C7.93799 10.2295 7.44701 9.97282 7.30249 9.51169C7.15796 9.05056 7.41463 8.55957 7.87576 8.41505C9.8573 7.79402 11.9234 7.4853 13.9999 7.49998C16.0764 7.4853 18.1426 7.79402 20.1241 8.41505C20.5853 8.55957 20.8419 9.05056 20.6974 9.51169C20.5529 9.97282 20.0619 10.2295 19.6008 10.085C17.7907 9.51766 15.9032 9.23595 14.0064 9.24998H13.9935Z" fill="white"/>
<path fill-rule="evenodd" clip-rule="evenodd" d="M7.30249 19.4883C7.44701 19.0272 7.93799 18.7705 8.39912 18.915C10.2092 19.4823 12.0966 19.764 13.9935 19.75H14.0064C15.9032 19.764 17.7907 19.4823 19.6008 18.915C20.0619 18.7705 20.5529 19.0272 20.6974 19.4883C20.8419 19.9494 20.5853 20.4404 20.1241 20.5849C18.1426 21.206 16.0764 21.5147 13.9999 21.5C11.9234 21.5147 9.8573 21.206 7.87576 20.5849C7.41463 20.4404 7.15796 19.9494 7.30249 19.4883Z" fill="white"/>
<path fill-rule="evenodd" clip-rule="evenodd" d="M17.6925 4.70963C18.0692 4.49727 18.5108 4.43091 18.9332 4.52317C20.086 4.77302 21.2147 5.12352 22.3063 5.57065C22.552 5.66539 22.7727 5.81541 22.9512 6.00915C23.1317 6.20498 23.2641 6.44006 23.3381 6.69582L27.0444 19.0722C27.1411 19.3946 27.1433 19.738 27.0509 20.0616C26.9584 20.3853 26.7751 20.6756 26.5227 20.8983L26.5182 20.9023C24.7091 22.4764 22.2579 23.6678 19.4737 24.3503C19.087 24.4489 18.678 24.4105 18.3162 24.2417C17.9559 24.0736 17.6647 23.7864 17.4916 23.4287L16.1718 20.8111C15.9543 20.3796 16.1277 19.8534 16.5593 19.6359C16.9908 19.4183 17.5169 19.5918 17.7345 20.0233L19.0579 22.6483L19.0589 22.6502C21.6295 22.0198 23.8119 20.9373 25.3694 19.5821L25.9438 20.2422L25.3649 19.586C25.3665 19.5847 25.3676 19.5829 25.3682 19.5808C25.3688 19.5788 25.3687 19.5767 25.3681 19.5747L21.6616 7.19764C21.6585 7.19641 21.6554 7.19516 21.6523 7.19389C20.6523 6.78362 19.618 6.46217 18.5616 6.23328L18.5597 6.23286C18.5571 6.23229 18.5544 6.2327 18.552 6.23402C18.5499 6.23521 18.5483 6.23705 18.5473 6.23927L17.6855 8.84648C17.5339 9.30532 17.0389 9.55432 16.5801 9.40266C16.1213 9.251 15.8723 8.75609 16.0239 8.29726L16.8905 5.67558C17.0301 5.266 17.3156 4.92215 17.6925 4.70963Z" fill="white"/>
<path fill-rule="evenodd" clip-rule="evenodd" d="M9.44806 6.23402C9.44572 6.2327 9.44298 6.23229 9.44035 6.23286L9.43845 6.23328C8.38203 6.46217 7.34781 6.78362 6.34777 7.19389C6.34469 7.19516 6.34159 7.19641 6.33849 7.19764L2.632 19.5745C2.6314 19.5765 2.63132 19.5788 2.63189 19.5809C2.63241 19.5827 2.63338 19.5843 2.63471 19.5856C4.19194 20.9392 6.37279 22.0203 8.94121 22.6502L8.94216 22.6483L10.2656 20.0233C10.4831 19.5918 11.0093 19.4183 11.4408 19.6359C11.8723 19.8534 12.0458 20.3796 11.8282 20.8111L10.5085 23.4287C10.3354 23.7864 10.0442 24.0736 9.68387 24.2417C9.32209 24.4105 8.91308 24.4489 8.52634 24.3503C5.74215 23.6678 3.29095 22.4764 1.48192 20.9023L1.47738 20.8983C1.22498 20.6756 1.0417 20.3853 0.949224 20.0616C0.856776 19.738 0.858977 19.3948 0.955565 19.0724C0.95554 19.0725 0.955589 19.0723 0.955565 19.0724L4.66198 6.69584C4.73593 6.44008 4.86836 6.20498 5.04883 6.00915C5.22739 5.8154 5.44808 5.66539 5.69378 5.57065C6.78566 5.1234 7.91469 4.77282 9.06787 4.52296C9.48999 4.43101 9.9312 4.49743 10.3076 4.70963C10.6845 4.92215 10.97 5.26601 11.1095 5.6756L11.1121 5.68318L11.9761 8.29726C12.1278 8.75609 11.8788 9.251 11.42 9.40266C10.9611 9.55432 10.4662 9.30532 10.3146 8.84648L9.45276 6.23926C9.45182 6.23705 9.45017 6.23521 9.44806 6.23402Z" fill="white"/>
</svg>
