<svg width="28" height="29" viewBox="0 0 28 29" fill="none" xmlns="http://www.w3.org/2000/svg">
<path fill-rule="evenodd" clip-rule="evenodd" d="M23.5165 3.66541C23.812 3.55086 24.1331 3.51869 24.4454 3.57236C24.7578 3.62603 25.0497 3.76352 25.29 3.97014C25.5303 4.17677 25.71 4.44477 25.8099 4.74555C25.9098 5.04632 25.9261 5.36858 25.8571 5.67791L25.8561 5.68281L25.856 5.68281L21.7435 23.6422L21.7434 23.6427C21.6755 23.9385 21.5318 24.2116 21.3265 24.4351C21.1211 24.6586 20.8611 24.8249 20.5721 24.9175C20.283 25.0102 19.9749 25.0261 19.6778 24.9637C19.3814 24.9014 19.1062 24.7632 18.8792 24.5626C18.8787 24.5622 18.8783 24.5618 18.8778 24.5614L9.22297 16.0664L3.62308 14.9423L3.61948 14.9415C1.93748 14.5965 1.67901 12.2405 3.32292 11.5963L3.64217 12.4109L3.32232 11.5965L3.32292 11.5963L23.5129 3.66681L23.5165 3.66541ZM3.96694 13.2235C3.96709 13.2245 3.96727 13.2255 3.96747 13.2264C3.9683 13.2266 3.96921 13.2268 3.97018 13.227C3.97049 13.2271 3.97081 13.2272 3.97113 13.2272L9.79721 14.3968C9.94776 14.427 10.0877 14.4963 10.203 14.5978L20.0358 23.2493L20.0378 23.2511L24.1491 5.29709L3.96694 13.2235ZM3.9586 13.2237C3.9586 13.2237 3.95862 13.2237 3.95864 13.2237L3.9586 13.2237Z" fill="white"/>
<path fill-rule="evenodd" clip-rule="evenodd" d="M25.2202 3.99079C25.5032 4.38255 25.415 4.9295 25.0232 5.21245L10.1373 15.964C9.74551 16.247 9.19856 16.1588 8.91561 15.767C8.63266 15.3753 8.72087 14.8283 9.11262 14.5453L23.9986 3.79379C24.3903 3.51084 24.9373 3.59904 25.2202 3.99079Z" fill="white"/>
<path fill-rule="evenodd" clip-rule="evenodd" d="M9.625 14.3797C10.1082 14.3797 10.5 14.7715 10.5 15.2547L10.5 22.3736L10.5047 22.3688L13.9172 18.9563C14.2589 18.6146 14.8129 18.6146 15.1547 18.9563C15.4964 19.298 15.4964 19.852 15.1547 20.1937L11.7441 23.6043C11.501 23.85 11.1906 24.0183 10.852 24.0878C10.5121 24.1576 10.1591 24.1247 9.83785 23.9934C9.51664 23.8621 9.24171 23.6383 9.04801 23.3504C8.85431 23.0625 8.75058 22.7235 8.75 22.3765L8.75 15.2547C8.75 14.7715 9.14175 14.3797 9.625 14.3797Z" fill="white"/>
</svg>
